<?xml version="1.0" encoding="utf-8"?>
<!-- Generator: Adobe Illustrator 24.0.3, SVG Export Plug-In . SVG Version: 6.00 Build 0)  -->
<svg version="1.1" id="图层_1" xmlns="http://www.w3.org/2000/svg" xmlns:xlink="http://www.w3.org/1999/xlink" x="0px" y="0px"
	 viewBox="0 0 512 512" style="enable-background:new 0 0 512 512;" xml:space="preserve">
<style type="text/css">
	.st0{opacity:0.85;}
	.st1{opacity:0.75;}
	.st2{fill:url(#SVGID_1_);}
	.st3{fill:url(#SVGID_2_);}
	.st4{fill:url(#SVGID_3_);}
</style>
<g class="st0">
	
		<image style="overflow:visible;" width="2439" height="2439" xlink:href="16020F92658207D6.png"  transform="matrix(0.24 0 0 0.24 -36.72 -36.72)">
	</image>
</g>
<g>
	<g class="st1">
		
			<image style="overflow:visible;opacity:0.72;" width="551" height="272" xlink:href="16020F92658207DA.png"  transform="matrix(0.24 0 0 0.24 170.28 215.88)">
		</image>
		<g>
			<linearGradient id="SVGID_1_" gradientUnits="userSpaceOnUse" x1="185.5" y1="248.5" x2="287.5" y2="248.5">
				<stop  offset="0" style="stop-color:#D3FF00"/>
				<stop  offset="1" style="stop-color:#FFEA3F"/>
			</linearGradient>
			<path class="st2" d="M203,266h67c9.7,0,17.5-7.8,17.5-17.5v0c0-9.7-7.8-17.5-17.5-17.5h-67c-9.7,0-17.5,7.8-17.5,17.5v0
				C185.5,258.2,193.3,266,203,266z"/>
		</g>
	</g>
	<g class="st1">
		
			<image style="overflow:visible;opacity:0.72;" width="726" height="284" xlink:href="16020F92658207DD.png"  transform="matrix(0.24 0 0 0.24 170.28 111.96)">
		</image>
		<g>
			<linearGradient id="SVGID_2_" gradientUnits="userSpaceOnUse" x1="185.5" y1="146" x2="329.5" y2="146">
				<stop  offset="0" style="stop-color:#D3FF00"/>
				<stop  offset="1" style="stop-color:#FFEA3F"/>
			</linearGradient>
			<path class="st3" d="M204.5,165h106c10.5,0,19-8.5,19-19v0c0-10.5-8.5-19-19-19h-106c-10.5,0-19,8.5-19,19v0
				C185.5,156.5,194,165,204.5,165z"/>
		</g>
	</g>
	<g>
		
			<image style="overflow:visible;opacity:0.72;" width="326" height="1201" xlink:href="16020F92658207DE.png"  transform="matrix(0.24 0 0 0.24 167.4 111.96)">
		</image>
		<g>
			<linearGradient id="SVGID_3_" gradientUnits="userSpaceOnUse" x1="206.5" y1="385" x2="206.5" y2="127">
				<stop  offset="0" style="stop-color:#D3FF00"/>
				<stop  offset="1" style="stop-color:#FFEA3F"/>
			</linearGradient>
			<path class="st4" d="M206.5,385L206.5,385c-13.3,0-24-10.7-24-24V151c0-13.3,10.7-24,24-24h0c13.3,0,24,10.7,24,24v210
				C230.5,374.3,219.8,385,206.5,385z"/>
		</g>
	</g>
</g>
<g>
</g>
<g>
</g>
<g>
</g>
<g>
</g>
<g>
</g>
<g>
</g>
<g>
</g>
<g>
</g>
<g>
</g>
<g>
</g>
<g>
</g>
</svg>
